<?xml version="1.0" encoding="UTF-8"?>
<svg id="Layer_2" data-name="Layer 2" xmlns="http://www.w3.org/2000/svg" viewBox="0 0 578.82 262.3">
  <defs>
    <style>
      .cls-1 {
        fill: #f6c462;
      }

      .cls-2 {
        fill: #19964f;
        fill-rule: evenodd;
      }

      .cls-3 {
        fill: #199750;
      }
    </style>
  </defs>
  <g id="Layer_1-2" data-name="Layer 1">
    <g>
      <g>
        <path class="cls-2" d="M444.4,57.72c1.47,2.88,5.01,4.02,7.89,2.55.66-.34,1.22-.78,1.68-1.3.64-.57,1.13-1.27,1.46-2.03,1.36.37,2.86.26,4.21-.43.66-.34,1.22-.78,1.68-1.3,1.93-1.74,2.54-4.61,1.3-7.03l-4.55-8.88-3.09,1.59.09.17-.52.27,4.55,8.88c.43.85.31,1.84-.24,2.55-.11.09-.23.17-.36.23-1.17.6-2.61.13-3.21-1.04l-.77-1.51h0s-2.19-4.27-2.19-4.27l-3.09,1.59.09.17-.52.27,2.96,5.79c.43.85.31,1.84-.24,2.55-.11.09-.23.16-.36.23-1.17.6-2.61.13-3.21-1.04l-4.55-8.88-3.1,1.59.09.17-.52.27,4.55,8.88Z"/>
        <path class="cls-2" d="M495.44,51.59c2.3,0,4.36-.98,5.81-2.55,1.56-1.45,2.55-3.51,2.55-5.81,0-4.38-3.55-7.92-7.92-7.92-2.3,0-4.36.99-5.81,2.55-1.56,1.45-2.55,3.51-2.55,5.81,0,4.38,3.55,7.92,7.92,7.92Z"/>
        <path class="cls-2" d="M553.33,107.34c4.98,0,9.64-1.47,13.54-3.98-.48,3.03-1.87,5.78-3.9,7.89-2.63,2.51-6.13,4.02-10.04,4.02-1.79,0-3.47-.32-5.02-.88v.6l-.04-.04c-.08,0-.12-.04-.2-.04-.08-.04-.16-.04-.2-.08v11.75c1.59.32,3.31.52,5.02.52,7.25,0,13.82-3.03,18.52-7.81,4.82-4.74,7.81-11.27,7.81-18.52v-19.08c-.08-13.74-11.27-24.9-25.05-24.9-7.01,0-13.34,2.91-17.88,7.57-4.66,4.54-7.57,10.91-7.57,17.92,0,13.82,11.19,25.05,25.01,25.05ZM543.89,72.4c2.47-2.35,5.78-3.78,9.44-3.78,7.57,0,13.7,6.09,13.7,13.66,0,3.66-1.47,6.97-3.78,9.44-2.47,2.35-5.82,3.78-9.48,3.78-7.53,0-13.66-6.13-13.66-13.66,0-3.66,1.43-7.01,3.78-9.44Z"/>
        <polygon class="cls-2" points="467.82 123.9 468.34 123.64 466.75 120.54 448.97 129.67 449.06 129.84 448.53 130.11 450.12 133.2 467.9 124.07 467.82 123.9"/>
        <path class="cls-2" d="M319.59,113.95v12.47c1.63.32,3.31.48,5.02.48,7.25,0,13.82-2.99,18.52-7.81,3.31-3.23,5.78-7.33,6.97-11.95h144.59v-.04l.16.04h.72c7.01,0,13.34-2.91,17.92-7.57,4.66-4.54,7.53-10.87,7.53-17.92,0-13.82-11.19-25.02-25.01-25.02-7.05,0-13.38,2.87-17.92,7.53-4.66,4.58-7.57,10.91-7.57,17.92,0,4.86,1.39,9.4,3.78,13.26h-123.36v-20.67h-11.79s0,.44,0,.44v25.89c0,3.9-1.55,7.45-4.06,10.04-2.59,2.51-6.13,4.06-10.04,4.06-1.75,0-3.47-.32-5.02-.92M486.13,72.2c2.43-2.35,5.78-3.78,9.44-3.78,7.53,0,13.66,6.13,13.66,13.66,0,3.66-1.43,7.01-3.78,9.44-2.47,2.35-5.78,3.82-9.44,3.82-7.57,0-13.7-6.13-13.7-13.7,0-3.66,1.47-6.97,3.82-9.44Z"/>
        <path class="cls-2" d="M497.55,162.65c-4.82,4.71-7.82,11.27-7.82,18.52v45.68h11.37v-.44h.44v-28.64h14.09v-.44h.44v-11.37h-14.53v-5.24c0-3.9,1.54-7.44,4.05-10.05,2.61-2.51,6.15-4.05,10.05-4.05,1.77,0,3.46.32,5.02.9v-.59h.04c.13.06.27.1.4.15v-11.77c-1.63-.32-3.3-.49-5.02-.49-7.25,0-13.81,3-18.52,7.82Z"/>
        <path class="cls-2" d="M432.19,176.75h-.44v3.35c-3.82-2.39-8.37-3.78-13.22-3.78-7.01,0-13.38,2.91-17.92,7.57-4.66,4.54-7.53,10.91-7.53,17.92,0,13.82,11.19,25.06,25.02,25.06,5.06,0,9.76-1.51,13.66-4.06v4.06h11.39v-.44h.44v-50.11h-11.39v.44ZM431.76,201.81c0,3.66-1.43,7.01-3.78,9.44-2.43,2.35-5.78,3.78-9.44,3.78-7.53,0-13.66-6.09-13.66-13.66,0-3.66,1.43-6.97,3.78-9.44,2.47-2.35,5.78-3.78,9.44-3.78,7.57,0,13.66,6.09,13.66,13.62v.04Z"/>
        <polygon class="cls-2" points="528.69 186.5 528.26 186.5 528.26 226.93 539.63 226.93 539.63 226.5 540.06 226.5 540.06 186.06 528.69 186.06 528.69 186.5"/>
        <path class="cls-2" d="M374.01,175.18h-.44v32.63c0,2.04-.79,3.9-2.08,5.29-1.39,1.29-3.25,2.08-5.29,2.08-4.3,0-7.81-3.5-7.81-7.81v-5.56h-.03v-15.7h-11.37v.44h-.44v21.26c0,2.04-.79,3.9-2.08,5.29-1.39,1.29-3.25,2.08-5.29,2.08-4.31,0-7.81-3.5-7.81-7.81v-32.63h-11.37v.44h-.44v32.63c0,10.57,8.6,19.18,19.18,19.18,5.26,0,10.04-2.13,13.5-5.58,3.47,3.45,8.24,5.58,13.51,5.58s10.28-2.24,13.77-5.84c3.6-3.49,5.85-8.37,5.85-13.77v-32.63h-11.37v.44Z"/>
        <path class="cls-2" d="M534.37,166.34c-2.3,0-4.36.98-5.81,2.55-1.56,1.45-2.55,3.51-2.55,5.81,0,4.37,3.55,7.92,7.92,7.92,2.3,0,4.36-.99,5.81-2.55,1.56-1.45,2.55-3.51,2.55-5.81,0-4.38-3.55-7.92-7.92-7.92Z"/>
        <path class="cls-2" d="M458.52,162.79c-4.82,4.71-7.82,11.27-7.82,18.52v45.68h11.37v-.44h.44v-28.64h14.1v-.44h.44v-11.37h-14.53v-5.24c0-3.9,1.55-7.44,4.05-10.05,2.61-2.51,6.15-4.05,10.05-4.05,1.77,0,3.46.32,5.02.9v-.59l.12.04c.11.04.21.07.32.11v-11.77c-1.63-.32-3.3-.49-5.02-.49-7.25,0-13.81,3-18.52,7.82Z"/>
        <path class="cls-2" d="M573.8,174.75c-7.25,0-13.81,3-18.52,7.82-4.82,4.71-7.82,11.27-7.82,18.52v25.89h11.37v-.44h.44v-25.89c0-3.9,1.54-7.44,4.05-10.05,2.61-2.5,6.15-4.05,10.05-4.05,1.76,0,3.46.32,5.02.9v-.59c.15.05.29.1.44.15v-11.77c-1.63-.32-3.3-.49-5.02-.49Z"/>
      </g>
      <path class="cls-1" d="M233.59,95.29c-5.18-5.18-6.96-13.03-4.55-19.96,3.53-10.03-1.75-21.02-11.78-24.51-6.93-2.41-11.94-8.71-12.77-16-1.15-10.56-10.69-18.15-21.25-16.96-7.29.82-14.55-2.67-18.44-8.87C159.16.01,147.28-2.7,138.31,2.95c-6.2,3.89-14.25,3.89-20.46,0-7.59-4.75-17.22-3.6-23.42,2.31-1.15,1.09-2.18,2.34-3.07,3.76-.66,1.06-1.42,2.01-2.24,2.9-4.12,4.36-10.16,6.66-16.2,5.97-5.84-.66-11.42,1.39-15.37,5.15-3.17,3-5.34,7.13-5.87,11.81-.46,4.19-2.31,8.05-5.15,11.05-2.08,2.21-4.65,3.93-7.59,4.95-2.61.92-4.92,2.34-6.83,4.16-4.75,5.05-6.6,12.54-4.16,19.53,2.41,6.93.63,14.78-4.55,19.96-5.51,5.51-6.96,13.53-4.39,20.39,1.25,3.3,3.99,5.81,7.32,6.86,2.1.66,4.15,1.37,6.2,2.1l-3.34-7.81-.05.02-.42-1.11s0,0,0,0l-.46-1.08.13-.05c-2.11-6.88-.33-14.43,4.78-19.54,3.98-3.98,5.35-10,3.49-15.33-2.4-6.89-.79-14.48,4.22-19.8,2.05-1.94,4.39-3.38,7.02-4.31,2.22-.78,4.18-2.05,5.83-3.8,2.21-2.33,3.61-5.35,3.96-8.48.52-4.57,2.63-8.83,5.96-11.98,4.16-3.96,9.85-5.86,15.59-5.22,4.57.53,9.23-1.19,12.45-4.6.67-.72,1.23-1.45,1.71-2.22.9-1.43,1.95-2.72,3.12-3.82,6.41-6.11,16.18-7.08,23.75-2.34,4.77,3,10.94,3,15.71,0,9.1-5.72,21.14-2.97,26.86,6.12,3,4.78,8.55,7.46,14.16,6.82,5.2-.59,10.3.89,14.38,4.15,4.06,3.25,6.61,7.88,7.17,13.05.64,5.61,4.48,10.43,9.8,12.28,4.92,1.72,8.87,5.24,11.13,9.94,2.26,4.7,2.55,10,.82,14.92-1.85,5.33-.48,11.35,3.49,15.32,5.43,5.4,7.18,13.53,4.45,20.71l-3.65,8.49c2.29-.84,4.59-1.64,6.94-2.36,1.65-.49,3.1-1.35,4.36-2.47.92-1.06,1.51-2.12,2-3.44l.08-.19c2.61-6.86,1.15-14.91-4.39-20.42Z"/>
      <path class="cls-3" d="M.12,137.71c1.04,25.41,8.86,48.68,23.47,69.58,11.55,16.55,29.24,31.84,47.64,41.12,16.1,8.11,33.75,12.76,52.06,13.66l4.64.23-.23-1.59c-3.64-25.8-13.05-49.17-27.94-69.29-13.86-18.73-32.39-34.24-53.36-44.76-12.56-6.3-26.91-11-40.89-13.47-2.56-.45-4.9-.81-5.16-.81-.39,0-.42.81-.23,5.32h0ZM57.47,186.88c12.3,6.13,21.42,12.72,31.48,22.75,8.57,8.54,15.09,17.04,20.58,26.91,3.05,5.52,7.95,16.36,7.53,16.78-.42.42-.68-.78-1.36-1.88-.68-1.14-2.76-4.32-4.64-7.08-14.35-21.16-31.87-39.47-53.07-55.37-3.18-2.4-5.61-4.35-5.36-4.35s2.4,1.01,4.84,2.24Z"/>
      <path class="cls-3" d="M252.07,133.03c-39.4,6.78-73.87,28.59-97.2,61.54-7.01,9.9-13.57,22.56-18.01,34.89-1.62,4.45-3.93,11.98-3.73,12.17s.62-1.4,1.2-3.21c5.32-16.39,15.09-32.91,27.52-46.48,7.92-8.73,19.25-17.62,30.18-23.82,7.5-4.25,17.53-8.41,26.16-10.91,5.23-1.49,13.27-3.21,16.71-3.6l2.01-.23v2.76c0,16.88-5.26,36.51-13.79,51.44-5.29,9.28-10.26,15.77-17.82,23.3-5.94,5.94-12.04,10.94-18.34,15.12-4.45,2.95-13.08,7.5-17.79,9.41-1.49.58-2.63,1.1-2.56,1.17.19.19,9.54-3.15,13.44-4.8,24.28-10.39,45.7-29.05,59.2-51.57,11.39-18.95,17.56-39.95,18.34-62.25.1-3.25.13-5.91.06-5.87-.06,0-2.56.42-5.58.94h0Z"/>
      <path class="cls-1" d="M220.46,98.33c-5.26-5.26-7.07-13.2-4.62-20.24,1.31-3.74,1.09-7.75-.62-11.31-1.71-3.55-4.7-6.22-8.42-7.52-7.02-2.44-12.11-8.81-12.95-16.22-.43-3.91-2.35-7.42-5.43-9.88-3.1-2.48-6.96-3.59-10.89-3.15-7.4.84-14.74-2.7-18.7-9-2.09-3.33-5.37-5.65-9.21-6.52-3.85-.88-7.8-.21-11.13,1.89-6.31,3.95-14.45,3.96-20.74,0-5.73-3.59-13.12-2.86-17.98,1.77-.89.83-1.68,1.81-2.36,2.89-.64,1.02-1.38,1.98-2.27,2.94-4.25,4.49-10.38,6.76-16.44,6.06-4.33-.49-8.64.95-11.8,3.95-2.52,2.39-4.12,5.61-4.51,9.07-.46,4.15-2.31,8.13-5.22,11.21-2.14,2.27-4.8,4.01-7.7,5.02-1.98.7-3.74,1.78-5.23,3.19-3.71,3.95-4.92,9.68-3.1,14.91,2.45,7.04.64,14.98-4.62,20.24-4.08,4.07-5.4,10.21-3.38,15.64l5.37,12.8.5.19s0,.02,0,.02c20.13,8.18,38.63,20.29,54.21,35.86,14.25,14.25,25.6,30.95,33.65,49.13.63,1.42,1.22,2.8,1.81,4.26.49-1.22,1.02-2.41,1.55-3.6.89-1.98,1.81-3.96,2.8-5.94.3-.59.59-1.15.89-1.75.76-1.48,1.52-2.94,2.31-4.35.33-.59.66-1.19.99-1.78,7.19-12.77,16.1-24.61,26.62-35.14l.63-.63c15.44-15.28,33.68-27.15,53.55-35.17l.3-.17,5.43-12.85c2.09-5.5.8-11.73-3.31-15.81Z"/>
      <path class="cls-3" d="M130.91,171.15s16.22-72.23-19.41-109.58l14.72-21.9s40.07,48.58,4.69,131.48Z"/>
      <path class="cls-3" d="M203.58,185.09c-19.34,8.7-36.22,22.59-48.85,40.21-4.67,6.49-9.35,14.8-12.5,22.13-1.53,3.57-3.7,9.31-3.54,9.48s.94-1.3,2.01-3.05c8.76-14.73,20.71-29.76,34.44-43.3,9.25-9.15,18.11-16.65,28.24-23.89,5.03-3.57,5.16-3.67,4.93-3.67s-2.21.94-4.74,2.08h0Z"/>
    </g>
  </g>
</svg>